<svg width="190" height="179" viewBox="0 0 190 179" fill="none" xmlns="http://www.w3.org/2000/svg">
<path d="M186.037 30.4825C182.62 26.3187 177.435 24.001 172.053 24.001H55.2691C51.9302 24.001 48.7484 24.9438 45.9987 26.6329L40.0279 5.77439C39.0459 2.35689 35.9426 0 32.4073 0H23.3332H6.01008C2.71043 0 0 2.67115 0 6.01008V6.63859C0 9.93824 2.67114 12.6487 6.01008 12.6487H28.7148L40.3029 53.6193L56.2512 110.146C47.1771 112.424 40.46 120.634 40.46 130.376C40.46 141.414 49.0626 150.488 59.9436 151.195C59.0402 153.787 58.6081 156.655 58.8437 159.601C59.6294 169.579 67.7607 177.631 77.7382 178.299C89.6405 179.124 99.5787 169.657 99.5787 157.951C99.5787 155.594 99.1859 153.355 98.4395 151.234H122.323C121.341 154.023 120.948 157.126 121.301 160.308C122.401 169.971 130.375 177.592 140.117 178.299C152.02 179.124 161.997 169.696 161.997 157.951C161.997 146.599 152.57 137.525 141.256 137.525H61.4756C57.5867 137.525 54.2871 134.5 54.13 130.651C53.9728 126.565 57.2332 123.226 61.2792 123.226H73.2601H138.192H156.458C164.55 123.226 171.621 117.688 173.585 109.831L189.455 45.9594C190.83 40.46 189.573 34.8428 186.037 30.4825ZM141.61 151.195C145.302 151.195 148.327 154.219 148.327 157.912C148.327 161.604 145.302 164.629 141.61 164.629C137.917 164.629 134.893 161.604 134.893 157.912C134.893 154.219 137.878 151.195 141.61 151.195ZM79.1916 151.195C82.8841 151.195 85.9087 154.219 85.9087 157.912C85.9087 161.604 82.8841 164.629 79.1916 164.629C75.4991 164.629 72.4744 161.604 72.4744 157.912C72.4744 154.219 75.4598 151.195 79.1916 151.195ZM54.5228 53.5408L51.4588 42.7384C50.9874 41.0885 51.6552 39.8708 52.1266 39.2816C52.5587 38.6924 53.58 37.7103 55.2691 37.7103H68.0749L71.571 53.5801H54.5228V53.5408V53.5408ZM58.3724 67.2108H74.5564L77.7775 81.9021H62.4969L58.3724 67.2108ZM73.2601 109.478C71.4924 109.478 69.9211 108.299 69.4498 106.571L66.3465 95.5721H80.7629L83.8268 109.438H73.2601V109.478V109.478ZM107.474 109.478H97.811L94.7471 95.6114H107.435V109.478H107.474ZM107.474 81.9021H91.7617L88.5406 67.2108H107.474V81.9021ZM107.474 53.5408H85.5552L82.0591 37.671H107.474V53.5408ZM131.986 109.478H121.184V95.6114H134.893L131.986 109.478ZM137.8 81.9021H121.184V67.2108H140.903L137.8 81.9021ZM121.184 53.5408V37.671H147.109L143.77 53.5408H121.184ZM160.347 106.492C159.915 108.26 158.344 109.517 156.498 109.517H145.97L148.916 95.6506H163.058L160.347 106.492ZM166.436 81.9021H151.784L154.887 67.2108H170.089L166.436 81.9021ZM176.178 42.5812L173.467 53.5015H157.755L161.094 37.6317H172.328C174.017 37.6317 174.999 38.5745 175.431 39.1637C175.903 39.753 176.61 40.9707 176.178 42.5812Z" fill="white"/>
</svg>
